<svg width="21" height="24" viewBox="0 0 21 24" fill="none" xmlns="http://www.w3.org/2000/svg">
<path fill-rule="evenodd" clip-rule="evenodd" d="M5.32646 18.3373H2.73935C2.26308 18.3373 1.87698 17.908 1.87698 17.3784V7.78934C1.87698 7.25975 2.26308 6.83043 2.73935 6.83043H5.32646V2.9948C5.32646 2.46521 5.71256 2.03589 6.18883 2.03589H14.8125C15.2888 2.03589 15.6749 2.46521 15.6749 2.9948V6.83043H18.262C18.7383 6.83043 19.1244 7.25975 19.1244 7.78934V17.3784C19.1244 17.908 18.7383 18.3373 18.262 18.3373H15.6749V20.2552C15.6749 20.7848 15.2888 21.2141 14.8125 21.2141H6.18883C5.71256 21.2141 5.32646 20.7848 5.32646 20.2552V18.3373ZM5.32646 16.4195V15.4606C5.32646 14.931 5.71256 14.5017 6.18883 14.5017H14.8125C15.2888 14.5017 15.6749 14.931 15.6749 15.4606V16.4195H17.3996V8.74825H3.60172V16.4195H5.32646ZM7.0512 3.95371V6.83043H13.9502V3.95371H7.0512ZM7.0512 16.4195V19.2963H13.9502V16.4195H7.0512ZM4.46409 9.70716H7.0512V11.625H4.46409V9.70716Z" fill="#727272"/>
</svg>
