<svg width="20" height="21" viewBox="0 0 20 21" fill="none" xmlns="http://www.w3.org/2000/svg">
<path fill-rule="evenodd" clip-rule="evenodd" d="M14 5.31792H18V6.91792H16.4V17.3179C16.4 17.7597 16.0418 18.1179 15.6 18.1179H4.4C3.95817 18.1179 3.6 17.7597 3.6 17.3179V6.91792H2V5.31792H6V2.91792C6 2.47609 6.35817 2.11792 6.8 2.11792H13.2C13.6418 2.11792 14 2.47609 14 2.91792V5.31792ZM14.8 6.91792H5.2V16.5179H14.8V6.91792ZM7.6 9.31792H9.2V14.1179H7.6V9.31792ZM10.8 9.31792H12.4V14.1179H10.8V9.31792ZM7.6 3.71792V5.31792H12.4V3.71792H7.6Z" fill="#727272"/>
</svg>
