<svg width="27" height="28" viewBox="0 0 27 28" fill="none" xmlns="http://www.w3.org/2000/svg">
<path fill-rule="evenodd" clip-rule="evenodd" d="M18.2818 3.78429H3.49934C1.84038 3.78429 0.495605 5.23652 0.495605 7.02809V24.3283C0.495605 26.1199 1.84038 27.5721 3.49934 27.5721H19.5193C21.1778 27.5721 22.523 26.1199 22.523 24.3283V8.37935L25.3741 5.29992C25.7966 4.84352 26.0339 4.22514 26.0339 3.57953C26.0339 2.93461 25.7966 2.31557 25.3741 1.85915L24.3123 0.71246C23.8897 0.256298 23.3164 0 22.7192 0C22.1214 0 21.5488 0.256313 21.1262 0.71246L18.2818 3.78429ZM16.2793 5.94682H3.49934C2.94621 5.94682 2.49809 6.43074 2.49809 7.02809V24.3283C2.49809 24.9256 2.94621 25.4095 3.49934 25.4095H19.5193C20.072 25.4095 20.5206 24.9256 20.5206 24.3283V10.5419L12.0134 19.7289C11.6985 20.0685 11.298 20.3 10.8619 20.3938L7.69348 21.0783C7.36539 21.1493 7.02612 21.0382 6.78922 20.7827C6.55255 20.5268 6.44972 20.1605 6.51544 19.8061L7.14926 16.3844C7.23619 15.9136 7.45055 15.4811 7.765 15.141L16.2793 5.94682ZM19.8871 5.10887L21.303 6.63784L10.597 18.1993C10.562 18.2372 10.5179 18.263 10.4692 18.2734L8.77379 18.6393L9.11261 16.8084C9.12221 16.7558 9.14613 16.7082 9.1812 16.6703L19.8871 5.10887ZM22.7192 5.10887L21.303 3.57941L22.542 2.24136C22.5891 2.19116 22.6526 2.16245 22.7192 2.16245C22.7854 2.16245 22.8488 2.19116 22.896 2.24136L23.9582 3.3885C24.0047 3.43942 24.0313 3.50796 24.0313 3.5794C24.0313 3.65133 24.0047 3.71986 23.9582 3.7708L22.7192 5.10887Z" fill="#2B8790"/>
</svg>
