<svg width="24" height="23" viewBox="0 0 24 23" fill="none" xmlns="http://www.w3.org/2000/svg">
<path fill-rule="evenodd" clip-rule="evenodd" d="M11 2.06445C15.068 2.06445 18.426 4.91956 18.934 8.61447L21.184 11.9426C21.332 12.1617 21.302 12.488 20.959 12.6272L19 13.4153V16.1707C19 17.2099 18.105 18.0516 17 18.0516H15.001L15 20.8728H6V17.3989C6 16.2892 5.564 15.2388 4.756 14.2908C3.657 13.0025 3 11.3671 3 9.5878C3 5.43303 6.582 2.06445 11 2.06445ZM11 4.06445C7.686 4.06445 5 6.59042 5 9.70696C5 11.0094 5.468 12.2395 6.316 13.2335C7.41 14.5163 8 15.9767 8 17.5181V19.1111H13L13.002 16.2899H17V12.295L18.55 11.6706L17.007 9.39004L16.95 8.97438C16.566 6.18133 14.024 4.06445 11 4.06445ZM9.988 7.54689L10.518 8.04531L11.048 7.54689C11.732 6.90364 12.84 6.90364 13.523 7.54689C14.207 8.18919 14.207 9.23118 13.523 9.87348L10.518 12.7004L7.513 9.87348C6.829 9.23118 6.829 8.18919 7.513 7.54689C8.196 6.90364 9.304 6.90364 9.988 7.54689L9.988 7.54689Z" fill="white"/>
</svg>
