<svg width="11" height="13" viewBox="0 0 11 13" fill="none" xmlns="http://www.w3.org/2000/svg">
<path fill-rule="evenodd" clip-rule="evenodd" d="M8.96054 12.2509H1.96035C1.31719 12.2509 0.793945 11.7276 0.793945 11.0845V5.25157C0.793945 4.60793 1.31719 4.08427 1.96035 4.08427H2.54355V2.91788C2.54355 1.30949 3.85207 0.000976562 5.46045 0.000976562C7.06882 0.000976562 8.37735 1.30949 8.37735 2.91788V4.08427H8.96054C9.6037 4.08427 10.1269 4.60793 10.1269 5.25157V11.0845C10.1269 11.7276 9.6037 12.2509 8.96054 12.2509ZM1.96035 5.25156V5.25157V11.0845L8.96054 11.0845V5.25157L1.96035 5.25156ZM5.46045 1.16827C4.49521 1.16827 3.70995 1.95314 3.70995 2.91788V4.08427H7.21004V2.91788C7.21004 1.95314 6.42517 1.16827 5.46045 1.16827ZM5.46045 9.33488C4.8168 9.33488 4.29315 8.81123 4.29315 8.16757C4.29315 7.52441 4.8168 7.00117 5.46045 7.00117C6.10361 7.00117 6.62685 7.52441 6.62685 8.16757C6.62685 8.81123 6.10361 9.33488 5.46045 9.33488Z" fill="#8692A6"/>
</svg>
