<svg width="24" height="24" viewBox="0 0 24 24" fill="none" xmlns="http://www.w3.org/2000/svg">
<path fill-rule="evenodd" clip-rule="evenodd" d="M17.3073 16.2675L21.4143 20.3735L20.0574 21.7304L15.9514 17.6234C14.4236 18.8481 12.5233 19.5142 10.5652 19.5115C5.80132 19.5115 1.935 15.6451 1.935 10.8813C1.935 6.11742 5.80132 2.2511 10.5652 2.2511C15.329 2.2511 19.1954 6.11742 19.1954 10.8813C19.1982 12.8394 18.532 14.7397 17.3073 16.2675H17.3073ZM15.3837 15.556C16.6007 14.3045 17.2803 12.6269 17.2775 10.8813C17.2775 7.17222 14.2733 4.16892 10.5652 4.16892C6.85612 4.16892 3.85282 7.17222 3.85282 10.8813C3.85282 14.5894 6.85612 17.5936 10.5652 17.5936C12.3108 17.5964 13.9884 16.9168 15.2399 15.6998L15.3837 15.556V15.556Z" fill="#707070"/>
</svg>
