<svg width="99" height="99" viewBox="0 0 99 99" fill="none" xmlns="http://www.w3.org/2000/svg">
<path fill-rule="evenodd" clip-rule="evenodd" d="M96.8746 67.7061C94.8208 64.7564 90.8828 63.8606 87.7481 65.606L69.2785 75.9369C69.3403 75.5508 69.3866 75.1648 69.3866 74.7631C69.3866 71.0257 66.3444 67.9991 62.6226 67.9991H52.2918C50.3304 67.9991 48.3232 67.3813 46.4855 66.1926C43.8294 64.4942 40.0152 63.5059 36.0155 63.5059C31.0119 63.5059 26.4873 64.9882 23.9236 67.4595C22.1476 69.1736 19.6615 70.1157 16.9434 70.1157H11.1685V68.4478C11.1685 67.8143 10.6431 67.2896 10.0103 67.2896H1.22309C0.58963 67.2896 0.0649414 67.8151 0.0649414 68.4478V97.5718C0.0649414 98.2053 0.590324 98.73 1.22309 98.73H10.0096C10.6431 98.73 11.1678 98.2046 11.1678 97.5718V96.2133C25.7458 91.9205 43.3658 95.7966 43.6134 95.8429C44.185 95.9352 44.7558 96.0128 45.3118 96.0746C54.9017 97.2484 64.9553 95.102 73.6187 90.0208L94.6673 77.6823C96.3352 76.7097 97.5395 75.0567 97.9568 73.1579C98.3741 71.2576 97.9881 69.2968 96.8761 67.7057L96.8746 67.7061ZM8.85275 96.4298H2.38164V69.6062H8.85201V95.3651L8.85275 96.4298ZM95.7025 72.6785C95.4246 73.9603 94.6368 75.0259 93.5099 75.6901L72.4613 88.0286C64.2456 92.8467 54.7027 94.885 45.6069 93.773C45.0666 93.7111 44.5263 93.6343 44.0627 93.5724C43.5842 93.4644 36.2329 91.8427 27.0447 91.8427C22.0262 91.8427 16.4666 92.3212 11.1848 93.7885L11.1841 72.4305H16.9598C20.2799 72.4305 23.3377 71.2567 25.546 69.126C27.6617 67.0878 31.6765 65.8216 36.0317 65.8216C39.5993 65.8216 42.95 66.6712 45.2512 68.1379C47.4751 69.5584 49.915 70.3156 52.3087 70.3156H62.6395C65.0951 70.3156 67.0873 72.3076 67.0873 74.7633C67.0873 76.0139 66.5776 77.1414 65.7436 77.9597C65.6974 78.0059 65.6512 78.0372 65.605 78.0834C64.8173 78.7936 63.7828 79.211 62.6404 79.211H45.1901C44.5567 79.211 44.032 79.7363 44.032 80.3691C44.032 81.0026 44.5574 81.5273 45.1901 81.5273H62.6404C64.3701 81.5273 65.9604 80.8789 67.1498 79.7975L88.8918 67.629C90.992 66.4552 93.6019 67.0574 94.9762 69.0345C95.7163 70.0988 95.9794 71.3964 95.7014 72.6782L95.7025 72.6785Z" fill="#013237"/>
<path fill-rule="evenodd" clip-rule="evenodd" d="M22.0383 65.6678C22.1308 65.6678 22.2239 65.6522 22.3163 65.6372C22.9341 65.483 23.3202 64.8495 23.1503 64.2317C22.6249 62.1472 22.3319 60.0933 22.2545 58.07H37.3421C37.3577 58.7959 37.3577 59.5218 37.3883 60.232C37.4189 60.8498 37.9286 61.3439 38.5464 61.3439H38.6083C39.2418 61.3134 39.7359 60.7723 39.7046 60.1396C39.674 59.4599 39.674 58.781 39.6584 58.0857H51.0086V64.5561C51.0086 65.1895 51.534 65.7142 52.1667 65.7142C52.8002 65.7142 53.3249 65.1888 53.3249 64.5561V58.0857H64.6751C64.6289 60.2939 64.5052 62.5484 64.2429 64.8183C64.1654 65.4518 64.6289 66.0227 65.2624 66.1002H65.401C65.9875 66.1002 66.4816 65.6679 66.5435 65.0807C66.8215 62.7332 66.9601 60.3863 66.9914 58.0849H82.079C81.9866 60.1693 81.6773 62.2851 81.137 64.4315C80.9828 65.0493 81.3531 65.682 81.971 65.837C82.0634 65.8676 82.1714 65.8676 82.2646 65.8676C82.7743 65.8676 83.2528 65.5278 83.3921 65.0031C84.1023 62.2694 84.4579 59.5515 84.4579 56.9267C84.4579 49.375 81.786 42.0088 76.9219 36.2184C76.5052 35.7243 75.7794 35.6625 75.2853 36.0798C74.7912 36.4964 74.7293 37.2223 75.1466 37.7164C75.8412 38.5503 76.4903 39.4305 77.0924 40.342H71.3317C70.6982 40.342 70.1735 40.8674 70.1735 41.5001C70.1735 42.1336 70.6989 42.6582 71.3317 42.6582H78.4816C80.6742 46.6887 81.9098 51.1669 82.0953 55.7845L67.0076 55.7852C66.9458 51.7393 66.5597 47.7856 65.8182 44.0333C65.6945 43.3998 65.0923 42.9988 64.4596 43.1218C63.8262 43.2455 63.4252 43.8477 63.5482 44.4804C64.2584 48.0786 64.6288 51.8772 64.6907 55.7845H53.3404V42.5345C53.804 41.6387 54.7303 41.2221 56.182 41.3607C57.0316 41.4382 58.1278 41.5306 59.2704 41.4844C64.9844 41.2526 69.3851 39.4148 72.3504 36.0179C76.9061 30.7981 76.3041 23.8643 76.2728 23.5862C75.9948 20.1886 75.2383 18.3358 73.9409 17.7643C73.1689 17.4245 72.4273 17.6406 71.9795 17.9499C68.8292 19.7878 65.5091 20.9302 63.0692 21.5941C67.8568 10.8922 58.4986 2.96978 58.4054 2.89334C55.7955 0.685104 53.9576 -0.0869517 52.6297 0.422838C51.7958 0.747021 51.4254 1.50348 51.3941 1.89023C50.1584 6.64651 47.7959 10.7237 46.5142 12.7307C45.2168 14.7384 44.476 16.9622 44.3679 19.2011C44.3217 19.9888 44.3679 20.7765 44.4916 21.5635C42.252 20.9613 39.2099 19.9269 36.3996 18.2896C35.9829 17.9654 35.2258 17.718 34.4381 18.0578C33.2025 18.5982 32.508 20.3123 32.2455 23.4318C32.215 23.6942 31.6739 30.0564 35.8437 34.844C38.5617 37.948 42.592 39.6465 47.8424 39.8625C48.0429 39.8781 48.2441 39.8781 48.4446 39.8781C49.1705 39.8781 49.8502 39.8319 50.4523 39.7701C50.6684 41.4067 50.9776 42.5038 51.0238 42.6423V42.6579V55.7685L39.6744 55.7692C39.7518 51.0129 40.3078 46.3334 41.311 42.1645C41.3728 41.9021 41.3266 41.6391 41.2185 41.423C41.188 40.8208 40.6931 40.3267 40.076 40.3267H27.3202C28.6177 38.3809 30.1305 36.5587 31.8908 34.937C32.3544 34.5048 32.3849 33.7633 31.9527 33.3004C31.5204 32.8369 30.7946 32.8063 30.3161 33.2386C23.7065 39.3229 19.9077 47.9551 19.9077 56.8953C19.9077 59.459 20.2476 62.1151 20.9116 64.7711C21.0502 65.3121 21.5294 65.6669 22.0384 65.6669L22.0383 65.6678ZM73.0919 19.9578C73.2923 20.2358 73.7559 21.1316 73.9721 23.7721C73.9721 23.8339 74.4974 30.0419 70.5901 34.4897C68.0726 37.3618 64.2278 38.9374 59.178 39.1378C58.1897 39.184 57.1859 39.0916 56.4137 39.0298C55.8115 38.9679 55.2556 38.9992 54.7302 39.076C56.5367 36.0494 59.9344 31.6792 64.5363 31.6792H64.66C65.3241 31.6948 65.8338 31.1851 65.8338 30.5367C65.8494 29.9032 65.3397 29.3629 64.6913 29.3629H64.5214C58.6838 29.3629 54.6534 34.5828 52.6151 38.0415C52.4146 34.7371 52.8625 30.0576 56.3675 26.8917C57.7261 25.6717 59.4559 24.7916 61.386 24.3742C63.8416 23.8496 68.5979 22.5677 73.0917 19.9578L73.0919 19.9578ZM48.4451 13.9659C49.7888 11.8814 52.2437 7.64988 53.5874 2.58438C53.9116 2.63059 54.8692 2.93985 56.9075 4.65393C57.2779 4.96248 65.9721 12.3905 60.0578 22.3515C58.0814 22.9075 56.2741 23.8651 54.823 25.1618C54.3289 25.6097 53.8967 26.0733 53.5106 26.5517C53.0471 25.9183 52.553 25.3317 51.9664 24.8071C50.5921 23.5565 48.878 22.6756 46.9785 22.1666C46.7467 21.1784 46.623 20.2364 46.6699 19.2787C46.7616 17.4715 47.3794 15.6338 48.4452 13.9659L48.4451 13.9659ZM47.9354 37.5316C43.3647 37.3461 39.8895 35.9256 37.6045 33.3314C34.0839 29.316 34.5467 23.6952 34.5467 23.6334C34.7323 21.4557 35.087 20.6068 35.2726 20.2976C39.3491 22.6451 43.6425 23.8034 45.8664 24.2818C47.6111 24.6523 49.1709 25.44 50.3908 26.552C51.0548 27.1541 51.6108 27.88 52.0892 28.6834C50.5138 31.6175 50.1591 34.8451 50.2357 37.455C49.5568 37.5012 48.7377 37.5631 47.9351 37.5318L47.9354 37.5316ZM38.855 42.6121C37.9436 46.6886 37.4346 51.1677 37.3571 55.7383H22.2851C22.4706 51.1207 23.7212 46.6269 25.9139 42.6121H38.855Z" fill="#013237"/>
</svg>
