<svg width="106" height="105" viewBox="0 0 106 105" fill="none" xmlns="http://www.w3.org/2000/svg">
<path fill-rule="evenodd" clip-rule="evenodd" d="M2.5867 104.499H39.5567C40.0023 104.499 40.4299 104.322 40.745 104.007C41.0601 103.692 41.2372 103.264 41.2372 102.818V91.0552C41.2372 87.9352 39.9978 84.9433 37.7916 82.7376C35.586 80.5313 32.5943 79.292 29.474 79.292H26.1131C25.1851 79.292 24.4326 80.0444 24.4326 80.9725C24.4326 82.1735 23.7919 83.2831 22.7522 83.8832C21.7124 84.4834 20.431 84.4834 19.3913 83.8832C18.3515 83.2831 17.7108 82.1735 17.7108 80.9725C17.7108 80.5269 17.5338 80.0992 17.2187 79.7841C16.9036 79.4691 16.476 79.292 16.0303 79.292H12.6694C9.54935 79.292 6.55756 80.5313 4.35184 82.7376C2.14555 84.9431 0.90625 87.9349 0.90625 91.0552V102.818C0.90625 103.264 1.0833 103.692 1.39838 104.007C1.71347 104.322 2.14108 104.499 2.5867 104.499ZM4.26715 91.0552C4.26715 88.827 5.1524 86.6899 6.72772 85.1135C8.30389 83.538 10.4413 82.6529 12.6694 82.6529H14.5682C15.0731 84.5848 16.4107 86.1917 18.2187 87.0394C20.026 87.8871 22.1176 87.8871 23.9248 87.0394C25.7328 86.1917 27.0704 84.5848 27.5753 82.6529H29.4741C31.7022 82.6529 33.8394 83.5382 35.4158 85.1135C36.9912 86.6896 37.8763 88.827 37.8763 91.0552V101.138H32.835V92.7357C32.835 91.8077 32.0825 91.0552 31.1545 91.0552C30.2265 91.0552 29.4741 91.8077 29.4741 92.7357V101.138H12.6695V92.7357C12.6695 91.8077 11.9171 91.0552 10.9891 91.0552C10.0611 91.0552 9.30858 91.8077 9.30858 92.7357V101.138H4.26723L4.26715 91.0552Z" fill="#013237"/>
<path fill-rule="evenodd" clip-rule="evenodd" d="M10.9893 67.5285C10.9893 70.203 12.0515 72.7672 13.942 74.6584C15.8333 76.549 18.3975 77.6112 21.072 77.6112C23.7465 77.6112 26.3106 76.549 28.2019 74.6584C30.0924 72.7672 31.1547 70.203 31.1547 67.5285C31.1547 64.854 30.0924 62.2899 28.2019 60.3986C26.3107 58.5081 23.7465 57.4458 21.072 57.4458C18.3975 57.4458 15.8334 58.5081 13.942 60.3986C12.0515 62.2899 10.9893 64.854 10.9893 67.5285ZM21.072 60.8067C22.8545 60.8067 24.5643 61.5149 25.8253 62.7752C27.0856 64.0363 27.7938 65.746 27.7938 67.5285C27.7938 69.3109 27.0856 71.0208 25.8253 72.2818C24.5642 73.5422 22.8544 74.2504 21.072 74.2504C19.2896 74.2504 17.5797 73.5422 16.3187 72.2818C15.0583 71.0207 14.3502 69.3109 14.3502 67.5285C14.3502 65.746 15.0583 64.0363 16.3187 62.7752C17.5798 61.5149 19.2896 60.8067 21.072 60.8067Z" fill="#013237"/>
<path fill-rule="evenodd" clip-rule="evenodd" d="M93.3309 79.292H89.97C89.0421 79.292 88.2896 80.0444 88.2896 80.9725C88.2896 82.1735 87.6489 83.2831 86.6091 83.8832C85.5693 84.4834 84.288 84.4834 83.2482 83.8832C82.2085 83.2831 81.5677 82.1735 81.5677 80.9725C81.5677 80.5269 81.3907 80.0992 81.0757 79.7841C80.7606 79.4691 80.3329 79.292 79.8873 79.292H76.5264C73.4063 79.292 70.4146 80.5313 68.2088 82.7376C66.0025 84.9431 64.7632 87.9349 64.7632 91.0552V102.818C64.7632 103.264 64.9402 103.692 65.2553 104.007C65.5704 104.322 65.998 104.499 66.4437 104.499H103.414C103.859 104.499 104.287 104.322 104.602 104.007C104.917 103.692 105.094 103.264 105.094 102.818V91.0552C105.094 87.9352 103.855 84.9433 101.649 82.7376C99.443 80.5313 96.4512 79.292 93.3309 79.292ZM101.733 101.138H96.6918V92.7357C96.6918 91.8077 95.9394 91.0552 95.0114 91.0552C94.0833 91.0552 93.3309 91.8077 93.3309 92.7357V101.138H76.5264V92.7357C76.5264 91.8077 75.774 91.0552 74.8459 91.0552C73.9179 91.0552 73.1655 91.8077 73.1655 92.7357V101.138H68.1241V91.0552C68.1241 88.827 69.0093 86.6899 70.5847 85.1135C72.1609 83.538 74.2982 82.6529 76.5264 82.6529H78.4252C78.9301 84.5848 80.2676 86.1917 82.0757 87.0394C83.8829 87.8871 85.9745 87.8871 87.7817 87.0394C89.5898 86.1917 90.9274 84.5848 91.4323 82.6529H93.3311C95.5592 82.6529 97.6964 83.5382 99.2727 85.1135C100.848 86.6896 101.733 88.827 101.733 91.0552L101.733 101.138Z" fill="#013237"/>
<path fill-rule="evenodd" clip-rule="evenodd" d="M84.929 77.6112C87.6035 77.6112 90.1675 76.549 92.0588 74.6584C93.9493 72.7672 95.0117 70.203 95.0117 67.5285C95.0117 64.854 93.9493 62.2899 92.0588 60.3986C90.1676 58.5081 87.6035 57.4458 84.929 57.4458C82.2544 57.4458 79.6903 58.5081 77.799 60.3986C75.9084 62.2899 74.8462 64.854 74.8462 67.5285C74.8462 70.203 75.9084 72.7672 77.799 74.6584C79.6902 76.549 82.2544 77.6112 84.929 77.6112ZM84.929 60.8067C86.7114 60.8067 88.4212 61.5149 89.6822 62.7752C90.9426 64.0363 91.6508 65.746 91.6508 67.5285C91.6508 69.3109 90.9426 71.0208 89.6822 72.2818C88.4211 73.5422 86.7114 74.2504 84.929 74.2504C83.1465 74.2504 81.4366 73.5422 80.1756 72.2818C78.9153 71.0207 78.2071 69.3109 78.2071 67.5285C78.2071 65.746 78.9153 64.0363 80.1756 62.7752C81.4368 61.5149 83.1465 60.8067 84.929 60.8067Z" fill="#013237"/>
<path fill-rule="evenodd" clip-rule="evenodd" d="M64.5788 26.4256C64.2893 25.8667 63.7124 25.5164 63.083 25.5179H57.0498L67.6367 14.9475C68.1138 14.4644 68.2533 13.7419 67.99 13.1162C67.7319 12.4883 67.1221 12.078 66.4439 12.0742H49.6393C48.9319 12.0742 48.3002 12.5176 48.0594 13.183L41.3376 31.668C41.153 32.1804 41.2288 32.7506 41.5394 33.1977C41.853 33.6493 42.3676 33.9194 42.9175 33.9201H49.1187L44.5979 50.2882C44.3879 51.0669 44.7622 51.8853 45.4884 52.2371C45.733 52.3609 46.0053 52.4187 46.2784 52.4052C46.8193 52.4029 47.3257 52.1403 47.6393 51.6992L64.4438 28.1728C64.8129 27.6619 64.8654 26.9867 64.5788 26.4256V26.4256ZM50.3789 42.1042L53 32.6764C53.1381 32.1715 53.0323 31.6306 52.7142 31.215C52.3826 30.7836 51.8635 30.539 51.3196 30.5593H45.3202L50.8154 15.4351H62.3941L51.8072 26.0055C51.3301 26.4886 51.1906 27.2111 51.4539 27.8368C51.712 28.4647 52.3219 28.875 53 28.8788H59.8223L50.3789 42.1042Z" fill="#013237"/>
<path fill-rule="evenodd" clip-rule="evenodd" d="M42.3128 58.8573C42.4981 58.9375 42.6984 58.978 42.901 58.9743C43.6039 58.9765 44.2341 58.5407 44.4802 57.882C44.7758 57.0245 44.3369 56.0875 43.4892 55.765C41.4607 55.0058 39.5356 53.9953 37.7583 52.7567C36.9931 52.2278 35.9436 52.4199 35.414 53.1858C34.885 53.951 35.0771 55.0005 35.843 55.5294C37.8581 56.894 40.0307 58.0111 42.3129 58.8573L42.3128 58.8573Z" fill="#013237"/>
<path fill-rule="evenodd" clip-rule="evenodd" d="M28.4486 15.8551C27.6272 15.4238 26.6114 15.7396 26.1801 16.5611C25.0496 18.7224 24.1868 21.0136 23.6084 23.3834C23.3863 24.2836 23.9355 25.1936 24.8357 25.4172C24.9692 25.4329 25.105 25.4329 25.2386 25.4172C26.0345 25.4382 26.736 24.8981 26.919 24.1231C27.4352 22.0218 28.2019 19.9901 29.2048 18.0735C29.5949 17.2512 29.2596 16.2677 28.4486 15.855L28.4486 15.8551Z" fill="#013237"/>
<path fill-rule="evenodd" clip-rule="evenodd" d="M42.1962 2.29329C41.4264 2.57237 40.9703 3.36608 41.1151 4.17179C41.2606 4.97751 41.9658 5.56118 42.7843 5.55367C42.9913 5.55517 43.1977 5.51541 43.3889 5.43589C45.4024 4.66618 47.5015 4.14178 49.6404 3.87321C50.5684 3.76144 51.2308 2.91895 51.119 1.99095C51.008 1.06295 50.1656 0.400526 49.2368 0.512302C46.8263 0.816876 44.4618 1.41554 42.1962 2.29328V2.29329Z" fill="#013237"/>
<path fill-rule="evenodd" clip-rule="evenodd" d="M37.6746 8.46101C38.0662 8.21795 38.3407 7.82484 38.4345 7.37322C38.5276 6.92233 38.4315 6.45271 38.1682 6.07386C37.9056 5.69575 37.4983 5.44218 37.0429 5.37243C36.5875 5.30268 36.1231 5.4227 35.7593 5.70478C33.7562 7.10016 31.9288 8.73114 30.3142 10.5616C29.7028 11.2578 29.7703 12.3178 30.4658 12.9307C30.7718 13.2016 31.1665 13.3509 31.5746 13.3509C32.057 13.3509 32.5161 13.1423 32.8349 12.7799C34.2678 11.1505 35.8928 9.70039 37.6745 8.46107L37.6746 8.46101Z" fill="#013237"/>
<path fill-rule="evenodd" clip-rule="evenodd" d="M32.8352 50.7242C33.4436 50.0775 33.4436 49.0685 32.8352 48.4218C31.3926 46.8022 30.1508 45.0129 29.1382 43.0947C28.7323 42.2867 27.7593 41.9454 26.9371 42.322C26.1156 42.7534 25.7997 43.7692 26.2311 44.5905C27.3669 46.7924 28.7601 48.851 30.3819 50.7243C30.703 51.0806 31.1622 51.2824 31.6423 51.2787C32.0984 51.2637 32.529 51.0634 32.8351 50.7243L32.8352 50.7242Z" fill="#013237"/>
<path fill-rule="evenodd" clip-rule="evenodd" d="M56.5457 0.512604C56.1024 0.460088 55.6567 0.586874 55.3064 0.864443C54.9561 1.14201 54.731 1.54713 54.6808 1.99125C54.629 2.43462 54.7558 2.88099 55.0326 3.23058C55.3102 3.58093 55.716 3.80599 56.1594 3.85625C58.314 4.09407 60.4303 4.59671 62.461 5.35217C62.6493 5.42044 62.8488 5.45495 63.0492 5.45269C63.7461 5.44819 64.368 5.01382 64.6118 4.3604C64.9307 3.49766 64.4963 2.5389 63.6373 2.2096C61.3508 1.36112 58.9695 0.79172 56.5456 0.512651L56.5457 0.512604Z" fill="#013237"/>
<path fill-rule="evenodd" clip-rule="evenodd" d="M80.7117 25.2985H81.1318C81.564 25.1875 81.9353 24.9092 82.1619 24.5243C82.3891 24.1395 82.4537 23.6803 82.3411 23.2482C81.7425 20.9121 80.8684 18.6555 79.7365 16.5264C79.3007 15.7049 78.2811 15.3928 77.4598 15.8287C76.6383 16.2653 76.3262 17.2848 76.7628 18.1062C77.783 20.0185 78.5618 22.0508 79.0817 24.1559C79.3165 24.8521 79.9766 25.315 80.7118 25.2984L80.7117 25.2985Z" fill="#013237"/>
<path fill-rule="evenodd" clip-rule="evenodd" d="M80.3413 38.9603C80.4748 38.9769 80.6106 38.9769 80.7442 38.9603C81.5401 38.9813 82.2424 38.4412 82.4246 37.6662C82.9843 35.3383 83.2611 32.9519 83.2484 30.558V30.4402C83.2484 29.9946 83.0713 29.567 82.7562 29.2519C82.4412 28.9368 82.0135 28.7598 81.5679 28.7598C80.6399 28.7598 79.8874 29.5122 79.8874 30.4402C79.8912 32.609 79.6316 34.7704 79.1148 36.8762C78.9924 37.3159 79.054 37.7863 79.2858 38.1786C79.5169 38.5717 79.898 38.8538 80.3414 38.9603L80.3413 38.9603Z" fill="#013237"/>
<path fill-rule="evenodd" clip-rule="evenodd" d="M49.791 57.2623C48.8623 57.1505 48.0198 57.813 47.9088 58.7409C47.797 59.6689 48.4594 60.5114 49.3874 60.6232C50.587 60.7605 51.7933 60.822 53.0003 60.8078C54.2306 60.8108 55.4596 60.738 56.6808 60.5895C57.5983 60.4754 58.251 59.642 58.1422 58.7237C58.0372 57.8355 57.254 57.185 56.3612 57.2451C54.1797 57.5182 51.9732 57.5234 49.7909 57.2623H49.791Z" fill="#013237"/>
<path fill-rule="evenodd" clip-rule="evenodd" d="M24.4329 28.878C23.5049 28.878 22.7524 29.6304 22.7524 30.5584C22.7532 32.9944 23.0525 35.4212 23.6429 37.7844C23.8665 38.6839 24.7765 39.233 25.6768 39.011C26.5763 38.7874 27.1254 37.8782 26.9033 36.9779C26.3797 34.878 26.1141 32.722 26.1134 30.5584C26.1134 30.1128 25.9363 29.6851 25.6213 29.3701C25.3062 29.055 24.8785 28.8779 24.4329 28.8779L24.4329 28.878Z" fill="#013237"/>
<path fill-rule="evenodd" clip-rule="evenodd" d="M74.3257 13.2164C74.9956 13.2209 75.6048 12.827 75.8749 12.2133C76.1449 11.6004 76.0249 10.8847 75.5688 10.3933C73.9483 8.57259 72.1149 6.95292 70.1072 5.57033C69.7351 5.30776 69.2737 5.20348 68.825 5.28076C68.3758 5.35728 67.9758 5.61009 67.7125 5.98219C67.1648 6.75716 67.3494 7.8292 68.1244 8.37689C69.9159 9.60347 71.5522 11.0424 72.9977 12.662C73.3346 13.0363 73.8222 13.2404 74.3256 13.2164L74.3257 13.2164Z" fill="#013237"/>
<path fill-rule="evenodd" clip-rule="evenodd" d="M63.0834 58.9423C63.2889 58.9415 63.4937 58.907 63.688 58.841C65.9642 57.9903 68.1254 56.8611 70.1249 55.4801C70.8773 54.9512 71.0641 53.9151 70.5449 53.1559C70.0251 52.3966 68.9913 52.1971 68.2254 52.7072C66.4661 53.948 64.565 54.9752 62.5629 55.7658C61.896 56.0914 61.5224 56.8154 61.6424 57.5475C61.7624 58.2798 62.3483 58.8462 63.0835 58.9422L63.0834 58.9423Z" fill="#013237"/>
<path fill-rule="evenodd" clip-rule="evenodd" d="M74.3933 51.1775C74.8764 51.1767 75.3356 50.9689 75.6537 50.6058C77.2666 48.7783 78.6545 46.7648 79.788 44.6065C80.0078 44.2112 80.0588 43.7438 79.929 43.3102C79.8 42.8765 79.5006 42.5135 79.1008 42.3026C78.7002 42.0926 78.2313 42.0521 77.8008 42.1916C77.3701 42.3311 77.0144 42.6387 76.8134 43.0438C75.8202 44.9621 74.5958 46.7514 73.1668 48.371C72.5576 49.0559 72.6101 50.1024 73.2846 50.7236C73.5861 51.0057 73.9807 51.1677 74.3933 51.1775Z" fill="#013237"/>
</svg>
