<svg width="69" height="103" viewBox="0 0 69 103" fill="none" xmlns="http://www.w3.org/2000/svg">
<path fill-rule="evenodd" clip-rule="evenodd" d="M34.6848 64.7554C34.4418 64.7554 34.2122 64.6781 34.0174 64.5321C30.2197 61.66 27.1 58.3155 24.7408 54.5928C23.1746 52.116 21.9658 49.4918 21.1484 46.7918C20.3089 44.0082 19.8828 41.1314 19.8828 38.2444C19.8828 35.4212 20.2892 32.6061 21.0956 29.88C21.8751 27.2352 23.0334 24.6598 24.5356 22.2273C24.7392 21.8982 25.0903 21.7018 25.4769 21.7018C25.6805 21.7018 25.8809 21.7594 26.056 21.8675C26.3078 22.0221 26.4821 22.2651 26.5508 22.5523C26.6194 22.8395 26.5705 23.1354 26.4158 23.3871C23.5478 28.0375 22.0921 33.0367 22.0921 38.2444C22.0921 43.5735 23.6117 48.6768 26.6075 53.411C28.6795 56.6854 31.3969 59.6608 34.6847 62.2543C37.9165 59.7026 40.5991 56.7816 42.66 53.5671C45.7222 48.7911 47.275 43.6349 47.2773 38.2444C47.2749 32.9707 45.7884 27.9161 42.8525 23.2239C40.7696 19.8927 38.0205 16.8675 34.6845 14.2346C33.7897 14.9415 32.9233 15.6879 32.1083 16.4573C31.9032 16.6498 31.6333 16.7579 31.3508 16.7579C31.0439 16.7579 30.7591 16.634 30.5468 16.4107C30.1295 15.9665 30.1491 15.2666 30.5934 14.8484C31.6672 13.8369 32.8185 12.8648 34.0177 11.9567C34.4043 11.6648 34.9653 11.6648 35.3519 11.9567C39.2031 14.8706 42.3577 18.2665 44.7263 22.053C46.2641 24.5076 47.4476 27.1074 48.2453 29.7831C49.069 32.5399 49.4872 35.3883 49.4872 38.2447C49.4872 41.1656 49.0517 44.0724 48.1925 46.8876C47.3576 49.6161 46.122 52.2647 44.5203 54.7611C42.1738 58.4198 39.0902 61.7069 35.3518 64.5324C35.1569 64.6783 34.9273 64.7557 34.6843 64.7557L34.6848 64.7554ZM26.9588 21.7074C26.722 21.7074 26.4972 21.6348 26.307 21.4952C26.0687 21.3208 25.9117 21.062 25.8675 20.7709C25.8233 20.4813 25.8943 20.1902 26.0687 19.9534V19.9511C26.2762 19.6686 26.61 19.4982 26.9611 19.4982C27.1954 19.4982 27.4203 19.5731 27.6129 19.7128C27.8511 19.8872 28.0057 20.1436 28.05 20.4355C28.0965 20.7275 28.0255 21.0186 27.8511 21.2577C27.8488 21.2577 27.8488 21.2601 27.8488 21.2601C27.6421 21.5394 27.3083 21.7074 26.9588 21.7074V21.7074Z" fill="#013237"/>
<path fill-rule="evenodd" clip-rule="evenodd" d="M34.8615 62.978C34.2515 62.978 33.7568 62.481 33.7568 61.8734V24.6427C33.7568 24.0328 34.2515 23.5381 34.8615 23.5381C35.4714 23.5381 35.9661 24.0328 35.9661 24.6427V61.8734C35.9661 62.4809 35.4714 62.978 34.8615 62.978Z" fill="#013237"/>
<path fill-rule="evenodd" clip-rule="evenodd" d="M35.59 36.3904C35.2452 36.3904 34.9249 36.2334 34.715 35.9619C34.3418 35.4807 34.4301 34.7847 34.9114 34.4107L41.0776 29.6412C41.2717 29.4889 41.506 29.4092 41.7537 29.4092C42.0986 29.4092 42.4165 29.5662 42.6264 29.8376C42.8071 30.072 42.8868 30.3615 42.8497 30.6527C42.8118 30.9462 42.6619 31.2074 42.4299 31.3865L36.2638 36.1585C36.0697 36.3108 35.8354 36.3904 35.59 36.3904L35.59 36.3904Z" fill="#013237"/>
<path fill-rule="evenodd" clip-rule="evenodd" d="M33.7685 36.0369C33.5097 36.0369 33.258 35.9462 33.0592 35.7781L27.7901 31.3596C27.3214 30.9683 27.2622 30.2708 27.6528 29.8045C27.8627 29.5528 28.172 29.4092 28.4986 29.4092C28.7574 29.4092 29.0091 29.5023 29.2079 29.668L34.4771 34.0865C34.9457 34.4778 35.0049 35.1753 34.6143 35.6416C34.4044 35.8933 34.0951 36.0369 33.7685 36.0369Z" fill="#013237"/>
<path fill-rule="evenodd" clip-rule="evenodd" d="M35.5906 49.6445C35.2458 49.6445 34.9254 49.4875 34.7156 49.216C34.5341 48.9817 34.4567 48.6921 34.4923 48.401C34.5302 48.1075 34.6801 47.8463 34.9121 47.6656L41.0781 42.896C41.2723 42.7438 41.5067 42.6641 41.7544 42.6641C42.0991 42.6641 42.4171 42.8211 42.627 43.0925C42.8077 43.3269 42.8874 43.6164 42.8504 43.9076C42.8125 44.2011 42.6625 44.4623 42.4306 44.6414L36.2644 49.4134C36.0703 49.5649 35.836 49.6445 35.5907 49.6445L35.5906 49.6445Z" fill="#013237"/>
<path fill-rule="evenodd" clip-rule="evenodd" d="M33.7685 49.2908C33.5097 49.2908 33.258 49.1977 33.0592 49.0321L27.7901 44.6135C27.3214 44.2222 27.2622 43.5247 27.6528 43.0584C27.8627 42.8067 28.172 42.6631 28.4986 42.6631C28.7574 42.6631 29.0091 42.7562 29.2079 42.9219L34.4771 47.3404C34.9457 47.7318 35.0049 48.4292 34.6143 48.8956C34.4044 49.1473 34.0951 49.2908 33.7685 49.2908Z" fill="#013237"/>
<path fill-rule="evenodd" clip-rule="evenodd" d="M48.3824 93.4764H19.6615C19.3696 93.4764 19.0871 93.3596 18.882 93.1536C18.6745 92.9462 18.5569 92.6629 18.5569 92.3717V65.3779C13.4314 62.7314 9.01755 58.7967 5.79604 53.9978C5.79367 53.9978 5.79367 53.9954 5.79367 53.9954C5.66978 53.8124 5.60352 53.5978 5.60587 53.3768C5.60587 53.0099 5.78893 52.6675 6.09428 52.4624C6.27733 52.3409 6.48958 52.2746 6.70815 52.2746C7.07898 52.2746 7.42142 52.4576 7.62738 52.763C10.7693 57.4443 15.0993 61.2267 20.1475 63.7052C20.5293 63.8906 20.7661 64.2709 20.7661 64.697V91.2687H47.2771V64.909C47.2771 64.483 47.5249 64.0916 47.9091 63.9101C50.5909 62.6446 53.0859 61.0074 55.3276 59.0475C55.5288 58.8707 55.7868 58.7737 56.0542 58.7737C56.3723 58.7737 56.6752 58.9109 56.8851 59.1492C57.2867 59.6084 57.241 60.3067 56.781 60.7091C54.5654 62.647 52.1108 64.2928 49.4857 65.6003L49.4865 92.372C49.4865 92.6679 49.3713 92.944 49.1614 93.1539C48.9539 93.3614 48.6754 93.4766 48.3819 93.4766L48.3824 93.4764ZM60.5775 56.1528C60.3321 56.1528 60.1001 56.0731 59.906 55.9255C59.4223 55.5539 59.3292 54.8604 59.7001 54.3767C59.91 54.1005 60.2303 53.9435 60.5775 53.9435C60.8228 53.9435 61.0548 54.0208 61.2489 54.1708C61.4833 54.3499 61.6332 54.6102 61.6735 54.9022C61.7113 55.1941 61.6332 55.4853 61.4549 55.7196C61.245 55.9934 60.9247 56.1528 60.5775 56.1528ZM64.0523 50.5231V50.5121V50.5231C63.8842 50.5231 63.7232 50.4853 63.571 50.4127C63.1907 50.2273 62.9476 49.8359 62.95 49.4138C62.95 49.2481 62.9879 49.0871 63.0605 48.934C65.1947 44.5541 66.2774 39.8413 66.2774 34.9305C66.2774 26.3745 62.9462 18.3302 56.8944 12.2794C50.8434 6.22765 42.7977 2.89644 34.2433 2.89644C25.6872 2.89644 17.6431 6.22765 11.5923 12.2794C5.54288 18.3304 2.20923 26.3745 2.20923 34.9305C2.20923 36.9694 2.40175 39.0089 2.78366 40.9973C2.89647 41.5938 2.50279 42.1745 1.90468 42.2897C1.83604 42.3031 1.76581 42.3094 1.69719 42.3094C1.16931 42.3094 0.714066 41.9315 0.612274 41.4123C0.205933 39.289 0 37.1089 0 34.9305C0 30.3083 0.905807 25.8236 2.69051 21.6024C3.54973 19.5722 4.6102 17.6147 5.8474 15.7857C7.07352 13.9717 8.4787 12.2667 10.0292 10.7178C11.578 9.16895 13.283 7.76209 15.0971 6.53602C16.926 5.30119 18.8836 4.23839 20.9138 3.37912C25.1349 1.59277 29.6199 0.687012 34.2434 0.687012C38.867 0.687012 43.3503 1.59281 47.5715 3.37751C49.6017 4.23675 51.5592 5.29956 53.3882 6.5344C55.2021 7.76054 56.9072 9.16814 58.456 10.7162C60.0049 12.265 61.4117 13.97 62.6387 15.7841C63.8735 17.613 64.9363 19.5706 65.7955 21.6008C67.5811 25.8236 68.4868 30.3083 68.4868 34.9305C68.4868 37.5642 68.1862 40.1884 67.5944 42.7339C67.0176 45.2059 66.1608 47.6188 65.0476 49.9029C64.8613 50.2872 64.4795 50.5231 64.0526 50.5231L64.0523 50.5231ZM3.58885 48.65C3.14069 48.65 2.7383 48.3802 2.56787 47.9651C2.45503 47.6913 2.45503 47.3931 2.57024 47.1193C2.68304 46.8479 2.89531 46.6356 3.16908 46.5228C3.304 46.4676 3.44525 46.4392 3.58884 46.4392C4.03702 46.4392 4.43941 46.709 4.60985 47.124C4.8418 47.6874 4.57195 48.3344 4.01099 48.5664C3.87604 48.6216 3.73482 48.65 3.58885 48.65Z" fill="#013237"/>
<path fill-rule="evenodd" clip-rule="evenodd" d="M41.7554 102.313H26.2907C25.9988 102.313 25.7163 102.197 25.5111 101.991C25.3036 101.783 25.186 101.5 25.186 101.209V92.3717C25.186 92.0798 25.3029 91.7949 25.5111 91.5898C25.7163 91.3847 25.9995 91.2671 26.2907 91.2671H41.7554C42.0465 91.2671 42.3298 91.3839 42.5349 91.5922C42.7425 91.7957 42.86 92.0806 42.86 92.3717V101.209C42.86 101.505 42.7449 101.781 42.5349 101.991C42.3275 102.198 42.049 102.313 41.7554 102.313ZM27.3952 100.104H40.6507V93.4764H27.3952V100.104Z" fill="#013237"/>
<path fill-rule="evenodd" clip-rule="evenodd" d="M55.0102 75.802H13.0348C12.4249 75.802 11.9302 75.3073 11.9302 74.6974C11.9302 74.0875 12.4249 73.5928 13.0348 73.5928H55.0102C55.6201 73.5928 56.1148 74.0875 56.1148 74.6974C56.1148 75.3073 55.6201 75.802 55.0102 75.802Z" fill="#013237"/>
<path fill-rule="evenodd" clip-rule="evenodd" d="M55.0102 84.6394H13.0348C12.4249 84.6394 11.9302 84.1447 11.9302 83.5348C11.9302 82.9249 12.4249 82.4302 13.0348 82.4302H55.0102C55.6201 82.4302 56.1148 82.9249 56.1148 83.5348C56.1148 84.1447 55.6201 84.6394 55.0102 84.6394Z" fill="#013237"/>
<path fill-rule="evenodd" clip-rule="evenodd" d="M34.2428 75.8022C33.6329 75.8022 33.1382 75.3074 33.1382 74.6975V62.2594C33.1382 61.6495 33.6329 61.1548 34.2428 61.1548C34.8528 61.1548 35.3474 61.6495 35.3474 62.2594V74.6975C35.3474 75.3074 34.8528 75.8022 34.2428 75.8022Z" fill="#013237"/>
</svg>
