<svg width="77" height="97" viewBox="0 0 77 97" fill="none" xmlns="http://www.w3.org/2000/svg">
<path fill-rule="evenodd" clip-rule="evenodd" d="M42.8185 85.8878C39.9162 84.7985 36.7166 84.7985 33.8141 85.8878C33.0093 86.2085 32.6083 87.1136 32.9119 87.9248C33.2148 88.736 34.1106 89.1562 34.929 88.8711C37.1118 88.052 39.5179 88.052 41.7007 88.8711C42.5184 89.1562 43.4143 88.736 43.7178 87.9248C44.0207 87.1135 43.6204 86.2084 42.8155 85.8878H42.8185Z" fill="#013237"/>
<path fill-rule="evenodd" clip-rule="evenodd" d="M46.6358 80.7656C41.4184 78.0645 35.2155 78.0645 29.9981 80.7656C29.2338 81.1787 28.9416 82.1286 29.3419 82.9001C29.7422 83.6723 30.6871 83.9802 31.4656 83.5927C35.761 81.3715 40.8666 81.3715 45.1626 83.5927C45.9405 83.9802 46.8854 83.6723 47.2857 82.9001C47.6859 82.1287 47.3937 81.1788 46.6294 80.7656H46.6358Z" fill="#013237"/>
<path fill-rule="evenodd" clip-rule="evenodd" d="M27.9961 78.4543C31.1061 76.5603 34.6768 75.5591 38.3179 75.5591C41.959 75.5591 45.5297 76.5603 48.6397 78.4543C49.0009 78.6918 49.4439 78.7729 49.8655 78.6783C50.2871 78.5831 50.6525 78.3207 50.8773 77.9517C51.1019 77.582 51.1666 77.1368 51.0564 76.7188C50.9462 76.3007 50.6704 75.9453 50.2935 75.734C46.6859 73.5349 42.5428 72.3716 38.3179 72.3716C34.0931 72.3716 29.9499 73.5348 26.3423 75.734C25.9719 75.9487 25.7031 76.3029 25.5964 76.7181C25.4905 77.1333 25.5559 77.5734 25.7785 77.9396C26.001 78.3057 26.3615 78.5667 26.7788 78.6641C27.1955 78.7615 27.6349 78.6862 27.9961 78.4557V78.4543Z" fill="#013237"/>
<path fill-rule="evenodd" clip-rule="evenodd" d="M74.4232 26.4605C73.9184 26.4015 61.9143 25.0413 54.685 29.2142C46.7473 33.7982 46.5034 38.584 47.2726 41.3376L39.9108 44.4924V32.4777C45.3117 31.8896 49.4669 28.208 49.4669 20.1857C49.4669 11.3905 38.3182 0.71875 38.3182 0.71875C38.3182 0.71875 27.1695 11.3896 27.1695 20.1839C27.1695 28.2062 31.3246 31.8886 36.7255 32.4758V49.2693L29.3645 46.1096C30.1338 43.3559 29.8899 38.57 21.9521 33.9862C14.7232 29.8133 2.71994 31.1735 2.2139 31.2325L0.09375 31.4877L0.93631 33.4481C1.13821 33.9166 5.96095 44.9921 13.1998 49.1663C15.7146 50.7882 18.612 51.7217 21.6011 51.8739C24.0464 51.94 26.382 50.86 27.9143 48.9545L36.7251 52.7336V58.0547H16.0204C15.1758 58.0547 14.3652 58.3903 13.7679 58.9875C13.1707 59.5848 12.8351 60.3954 12.8351 61.24V64.4254C12.8351 65.2701 13.1707 66.0806 13.7679 66.6779C14.3652 67.2751 15.1758 67.6107 16.0204 67.6107H16.3582L22.3783 92.6165C22.6264 93.661 23.2208 94.5918 24.0641 95.2566C24.9073 95.9213 25.9503 96.2818 27.0241 96.2797H49.6108C50.6845 96.2818 51.7275 95.9213 52.5708 95.2566C53.4141 94.5918 54.0085 93.661 54.2567 92.6165L60.2767 67.6107H60.6145C61.4592 67.6107 62.2697 67.2751 62.867 66.6779C63.4642 66.0806 63.7998 65.2701 63.7998 64.4254V61.24C63.7998 60.3954 63.4642 59.5848 62.867 58.9876C62.2697 58.3903 61.4592 58.0547 60.6145 58.0547H39.9098V47.9556L48.7285 44.1757V44.1764C50.2607 46.082 52.5956 47.1619 55.0402 47.0959C58.0293 46.9437 60.9259 46.0101 63.4414 44.3883C70.6725 40.2139 75.4946 29.1386 75.6971 28.67L76.5411 26.7097L74.4232 26.4605ZM25.8477 46.357C24.0779 49.4244 20.0458 49.4449 14.7851 46.406C10.1933 43.756 6.52374 37.4871 4.85008 34.2335C8.51321 34.0565 15.7676 34.0984 20.3594 36.7512C25.6181 39.7873 27.6203 43.2882 25.8477 46.3569V46.357ZM51.1593 91.8727C50.9879 92.5887 50.348 93.0942 49.6114 93.0942H27.0246C26.288 93.0942 25.6481 92.5887 25.4767 91.8727L19.6365 67.6114H56.9996L51.1593 91.8727ZM60.615 64.426H16.0203V61.2407H60.615V64.426ZM30.3543 20.1844C30.3543 15.3524 34.9972 9.06415 38.3176 5.32784C41.6402 9.05778 46.281 15.3347 46.281 20.1844C46.281 26.2906 43.6018 29.3872 38.3176 29.3872C33.0334 29.3872 30.3543 26.2906 30.3543 20.1844ZM61.8509 41.6281C56.5951 44.6669 52.5579 44.6464 50.7883 41.5791C49.0186 38.5117 51.018 35.0093 56.2766 31.9739C60.8684 29.3204 68.1277 29.2791 71.7859 29.4562C70.1122 32.712 66.4427 38.9775 61.8509 41.628V41.6281Z" fill="#013237"/>
</svg>
